<svg xmlns="http://www.w3.org/2000/svg" viewBox="0 0 24 24" fill="#10B981" width="24px" height="24px">
  <path d="M10.85 2.07L8.14 4.78L10.5 7.14L9.43 8.21L5.5 4.29L0.93 8.86L4.86 12.79L3.79 13.86L1.07 11.15L0 12.21L5.5 17.71L17.71 5.5L12.21 0L10.85 2.07ZM15 21C16.1 21 17 20.1 17 19C17 18.35 16.71 17.77 16.25 17.39L19.66 9.37L17.66 8.37L14.26 16.39C13.87 16.17 13.45 16 13 16C11.9 16 11 16.9 11 18C11 19.1 11.9 20 13 20C13.45 20 13.87 19.83 14.26 19.61L19.5 21L18.5 19L15 17.61V17.39C15.44 17.77 15.75 18.34 15.75 19C15.75 20.38 14.63 21.5 13.25 21.5C11.87 21.5 10.75 20.38 10.75 19C10.75 17.62 11.87 16.5 13.25 16.5C13.84 16.5 14.38 16.7 14.81 17.03L17.26 10.28L19.26 11.28L16.81 18.03C17.16 18.45 17.37 18.97 17.37 19.53C17.37 20.91 16.25 22.03 14.87 22.03C13.49 22.03 12.37 20.91 12.37 19.53C12.37 18.15 13.49 17.03 14.87 17.03C15.45 17.03 15.97 17.23 16.38 17.56L13.87 16L15 21Z"/>
</svg>
