<svg width="300" height="300" viewBox="0 0 300 300" fill="none" xmlns="http://www.w3.org/2000/svg">
  <rect width="300" height="300" fill="#E5E7EB"/>
  <path d="M150 125C137.574 125 127.5 135.074 127.5 147.5C127.5 159.926 137.574 170 150 170C162.426 170 172.5 159.926 172.5 147.5C172.5 135.074 162.426 125 150 125ZM150 162.5C141.715 162.5 135 155.785 135 147.5C135 139.215 141.715 132.5 150 132.5C158.285 132.5 165 139.215 165 147.5C165 155.785 158.285 162.5 150 162.5Z" fill="#9CA3AF"/>
  <path d="M159.375 175H140.625C123.75 175 110 188.75 110 205.625V210H120V205.625C120 194.25 129.25 185 140.625 185H159.375C170.75 185 180 194.25 180 205.625V210H190V205.625C190 188.75 176.25 175 159.375 175Z" fill="#9CA3AF"/>
</svg>

